HIERARCHY
ROOT Hips
{
  OFFSET -107.499 94.9678 -24.3457
  CHANNELS 6 Xposition Yposition Zposition Zrotation Xrotation Yrotation
  JOINT LeftHip
  {
    OFFSET 7.9576 0 0
    CHANNELS 6 Xposition Yposition Zposition Zrotation Xrotation Yrotation
    JOINT LeftKnee
    {
      OFFSET 0 -42.8504 0
      CHANNELS 6 Xposition Yposition Zposition Zrotation Xrotation Yrotation
      JOINT LeftAnkle
      {
        OFFSET 0 -41.644 0
        CHANNELS 6 Xposition Yposition Zposition Zrotation Xrotation Yrotation
        End Site
        {
          OFFSET 0 -7.23839 0
        }
      }
    }
  }
  JOINT RightHip
  {
    OFFSET -7.9576 0 0
    CHANNELS 6 Xposition Yposition Zposition Zrotation Xrotation Yrotation
    JOINT RightKnee
    {
      OFFSET 0 -42.8504 0
      CHANNELS 6 Xposition Yposition Zposition Zrotation Xrotation Yrotation
      JOINT RightAnkle
      {
        OFFSET 0 -41.644 0
        CHANNELS 6 Xposition Yposition Zposition Zrotation Xrotation Yrotation
        End Site
        {
          OFFSET 0 -7.23839 0
        }
      }
    }
  }
  JOINT Chest
  {
    OFFSET 0 10.6024 0
    CHANNELS 6 Xposition Yposition Zposition Zrotation Xrotation Yrotation
    JOINT Chest2
    {
      OFFSET 0 15.2424 0
      CHANNELS 6 Xposition Yposition Zposition Zrotation Xrotation Yrotation
      JOINT LeftCollar
      {
        OFFSET 2.4592 9.7208 4.0832
        CHANNELS 6 Xposition Yposition Zposition Zrotation Xrotation Yrotation
        JOINT LeftShoulder
        {
          OFFSET 13.4792 0 0
          CHANNELS 6 Xposition Yposition Zposition Zrotation Xrotation Yrotation
          JOINT LeftElbow
          {
            OFFSET 0 -28.0256 0
            CHANNELS 6 Xposition Yposition Zposition Zrotation Xrotation Yrotation
            JOINT LeftWrist
            {
              OFFSET 0 -22.7824 0
              CHANNELS 6 Xposition Yposition Zposition Zrotation Xrotation Yrotation
              End Site
              {
                OFFSET 0 -17.0984 0
              }
            }
          }
        }
      }
      JOINT RightCollar
      {
        OFFSET -2.4592 9.7208 4.0832
        CHANNELS 6 Xposition Yposition Zposition Zrotation Xrotation Yrotation
        JOINT RightShoulder
        {
          OFFSET -14.0592 0 0
          CHANNELS 6 Xposition Yposition Zposition Zrotation Xrotation Yrotation
          JOINT RightElbow
          {
            OFFSET 0 -25.7056 0
            CHANNELS 6 Xposition Yposition Zposition Zrotation Xrotation Yrotation
            JOINT RightWrist
            {
              OFFSET 0 -22.7824 0
              CHANNELS 6 Xposition Yposition Zposition Zrotation Xrotation Yrotation
              End Site
              {
                OFFSET 0 -16.5648 0
              }
            }
          }
        }
      }
      JOINT Neck
      {
        OFFSET 0 9.396 0
        CHANNELS 6 Xposition Yposition Zposition Zrotation Xrotation Yrotation
        JOINT Head
        {
          OFFSET 0 12.0408 0
          CHANNELS 6 Xposition Yposition Zposition Zrotation Xrotation Yrotation
          End Site
          {
            OFFSET 0 9.60482 0
          }
        }
      }
    }
  }
}
MOTION
Frames:	10
Frame Time:	0.00833333
29.6551 92.9968 11.0164 4.18873 -0.492194 45.671 7.9576 -1.64846e-014 -4.12115e-015 -1.14415 -2.90391 2.26551 0 -42.8504 0 5.52389 47.3609 -2.51833 0 -41.644 0 -2.41143 -11.9177 -0.137311 -7.9576 0 4.12115e-015 0.641101 -8.7698 7.93513 -2.06057e-015 -42.8504 0 3.69295 29.5003 5.59867 -2.06057e-015 -41.644 0 2.71955 -10.7659 9.78722 6.18172e-015 10.6024 4.12115e-015 -4.39938 -6.64744 -4.47104 -2.06057e-015 15.2424 8.2423e-015 4.45158 -7.32095 -4.50953 2.4592 9.7208 4.0832 29.4367 -0.712792 -1.0742 13.4792 1.64846e-014 -8.2423e-015 56.8107 4.30541 4.23448 1.64846e-014 -28.0256 0 -0.374827 -9.98627 61.4187 -4.12115e-015 -22.7824 0 16.8932 -13.1127 2.19334 -2.4592 9.7208 4.0832 -33.7731 -0.817219 1.04554 -14.0592 0 8.2423e-015 -63.8428 16.6567 -47.5017 -8.2423e-015 -25.7056 -1.64846e-014 -9.55417 3.53227e-005 3.36677 -1.64846e-014 -22.7824 0 -15.7399 -9.93975 -1.61039 8.2423e-015 9.396 8.2423e-015 -5.47608 53.2719 2.17229 4.12115e-015 12.0408 8.2423e-015 5.74762 -24.7566 -2.02868 
29.8106 93.0008 11.1367 4.09168 -0.539778 43.5266 7.9576 0 0 -1.28555 -3.11432 1.40417 0 -42.8504 0 5.0111 47.0687 -0.90612 0 -41.644 5.15143e-015 -2.379 -12.5639 -0.149269 -7.9576 0 0 0.748147 -8.79435 7.52644 0 -42.8504 0 3.6033 29.6379 5.67347 -1.03029e-015 -41.644 4.12115e-015 2.81565 -10.6991 10.0053 2.06057e-015 10.6024 0 -4.36413 -6.54118 -4.32918 4.12115e-015 15.2424 0 4.50302 -7.28505 -4.383 2.4592 9.7208 4.0832 29.1813 -0.765635 -1.27796 13.4792 0 0 56.5633 4.45741 3.67252 -1.64846e-014 -28.0256 0 -0.621964 -10.1287 61.7193 4.12115e-015 -22.7824 -1.64846e-014 16.4367 -13.3301 2.1644 -2.4592 9.7208 4.0832 -33.7004 -0.741818 0.839431 -14.0592 4.94538e-014 0 -63.7753 15.8705 -47.5507 -8.2423e-015 -25.7056 -1.64846e-014 -9.68669 3.53197e-005 3.70094 1.64846e-014 -22.7824 -1.64846e-014 -16.3295 -10.3953 -1.73913 -4.12115e-015 9.396 0 -4.48109 53.447 1.8649 0 12.0408 8.2423e-015 4.97135 -25.5207 -1.53625 
29.9563 93.0101 11.2428 4.00948 -0.575053 41.3817 7.9576 0 4.12115e-015 -1.43638 -3.30988 0.526121 -4.12115e-015 -42.8504 -8.2423e-015 4.50912 46.6501 0.783295 -4.12115e-015 -41.644 0 -2.31981 -13.219 -0.158426 -7.9576 0 0 0.838628 -8.79802 7.08046 -4.12115e-015 -42.8504 0 3.49562 29.7446 5.71928 -1.03029e-015 -41.644 4.12115e-015 2.91376 -10.6363 10.2071 -4.12115e-015 10.6024 4.12115e-015 -4.31185 -6.4398 -4.19446 2.06057e-015 15.2424 0 4.46802 -7.19809 -4.25626 2.4592 9.7208 4.0832 28.9815 -0.819281 -1.47706 13.4792 3.29692e-014 0 56.3072 4.67584 3.18982 0 -28.0256 8.2423e-015 -0.885581 -10.1693 62.0285 2.06057e-015 -22.7824 -1.64846e-014 16.1598 -13.6047 2.17052 -2.4592 9.7208 4.0832 -33.561 -0.665385 0.636816 -14.0592 4.94538e-014 8.2423e-015 -63.6364 15.0522 -47.6029 8.2423e-015 -25.7056 0 -9.83816 3.53153e-005 4.00527 0 -22.7824 0 -16.9393 -10.8529 -1.87113 4.12115e-015 9.396 8.2423e-015 -3.37048 53.6163 1.49529 0 12.0408 0 4.15781 -26.3098 -1.02429 
30.1012 93.0168 11.3376 3.9377 -0.599056 39.2981 7.9576 0 0 -1.58693 -3.50456 -0.217512 0 -42.8504 8.2423e-015 4.23702 46.143 2.0545 4.12115e-015 -41.644 0 -2.21557 -13.9157 -0.162933 -7.9576 0 0 0.905963 -8.78136 6.65952 -2.06057e-015 -42.8504 0 3.3996 29.8144 5.79368 -1.03029e-015 -41.644 0 2.96889 -10.6284 10.2942 0 10.6024 0 -4.25439 -6.35133 -4.09126 -2.06057e-015 15.2424 -8.2423e-015 4.35218 -7.06866 -4.1521 2.4592 9.7208 4.0832 28.8857 -0.847327 -1.5798 13.4792 3.29692e-014 0 55.945 4.80426 2.81878 0 -28.0256 8.2423e-015 -1.08512 -10.0446 62.0078 0 -22.7824 0 16.0952 -13.781 2.19004 -2.4592 9.7208 4.0832 -33.3769 -0.5928 0.446302 -14.0592 0 0 -63.4365 14.2818 -47.5751 8.2423e-015 -25.7056 0 -9.91102 3.53125e-005 4.19826 -8.2423e-015 -22.7824 1.64846e-014 -17.4143 -11.1966 -1.97314 0 9.396 8.2423e-015 -2.23279 53.7053 1.12004 0 12.0408 0 3.3678 -27.0178 -0.506833 
30.2463 93.0207 11.4209 3.88328 -0.605079 37.3059 7.9576 0 0 -1.74558 -3.70304 -0.809098 -4.12115e-015 -42.8504 8.2423e-015 4.23442 45.5599 2.8353 4.12115e-015 -41.644 3.09086e-015 -2.00963 -14.6768 -0.157141 -7.9576 0 0 0.942013 -8.7371 6.23477 6.18172e-015 -42.8504 0 3.30071 29.8403 5.94143 -4.12115e-015 -41.644 -4.12115e-015 2.965 -10.697 10.2212 0 10.6024 0 -4.19247 -6.28139 -4.03607 0 15.2424 0 4.11525 -6.88198 -4.08246 2.4592 9.7208 4.0832 28.9499 -0.841114 -1.55077 13.4792 1.64846e-014 -8.2423e-015 55.4399 4.78031 2.54662 -1.64846e-014 -28.0256 0 -1.18339 -9.66551 61.5154 -6.18172e-015 -22.7824 -1.64846e-014 16.353 -13.817 2.23124 -2.4592 9.7208 4.0832 -33.1201 -0.519748 0.256502 -14.0592 0 8.2423e-015 -63.1647 13.5449 -47.4476 8.2423e-015 -25.7056 -3.29692e-014 -9.88958 3.53126e-005 4.24101 8.2423e-015 -22.7824 -1.64846e-014 -17.7388 -11.3914 -2.03909 0 9.396 -8.2423e-015 -0.987795 53.6729 0.686409 -4.12115e-015 12.0408 -1.64846e-014 2.5821 -27.5954 0.0158904 
30.3874 93.0253 11.4914 3.8488 -0.592625 35.3679 7.9576 0 4.12115e-015 -1.9121 -3.89769 -1.32162 0 -42.8504 0 4.38598 44.8909 3.37381 0 -41.644 -1.03029e-015 -1.72852 -15.4803 -0.143643 -7.9576 1.64846e-014 4.12115e-015 0.953433 -8.66721 5.78829 0 -42.8504 0 3.19098 29.8271 6.1218 2.06057e-015 -41.644 -4.12115e-015 2.92709 -10.8124 10.0468 0 10.6024 4.12115e-015 -4.1203 -6.22459 -4.0125 0 15.2424 0 3.76802 -6.63916 -4.0333 2.4592 9.7208 4.0832 29.134 -0.815266 -1.44254 13.4792 1.64846e-014 0 54.8454 4.69444 2.36335 1.64846e-014 -28.0256 8.2423e-015 -1.21565 -9.0663 60.7588 -4.12115e-015 -22.7824 0 16.8822 -13.7956 2.30101 -2.4592 9.7208 4.0832 -32.7902 -0.445503 0.0673819 -14.0592 1.64846e-014 0 -62.816 12.8068 -47.2644 -8.2423e-015 -25.7056 0 -9.82243 3.53145e-005 4.1827 0 -22.7824 0 -17.9858 -11.5007 -2.08551 0 9.396 0 0.372794 53.5651 0.190302 0 12.0408 0 1.77754 -28.1058 0.549415 
30.525 93.0285 11.5506 3.82188 -0.573537 33.4437 7.9576 1.64846e-014 0 -2.06263 -4.08448 -1.73977 0 -42.8504 0 4.65151 44.1564 3.67491 0 -41.644 0 -1.47909 -16.2911 -0.133047 -7.9576 0 -8.2423e-015 0.955158 -8.58671 5.39867 -2.06057e-015 -42.8504 0 3.1096 29.7869 6.26433 0 -41.644 -4.12115e-015 2.87209 -10.9482 9.82915 -4.12115e-015 10.6024 0 -4.03984 -6.17242 -3.99568 0 15.2424 0 3.39285 -6.37266 -3.98841 2.4592 9.7208 4.0832 29.3429 -0.778326 -1.29533 13.4792 4.94538e-014 0 54.1978 4.61929 2.30569 0 -28.0256 0 -1.2142 -8.37853 59.9213 -2.06057e-015 -22.7824 -1.64846e-014 17.4729 -13.7496 2.3754 -2.4592 9.7208 4.0832 -32.4509 -0.380336 -0.0954203 -14.0592 3.29692e-014 0 -62.4073 12.112 -47.0336 8.2423e-015 -25.7056 -1.64846e-014 -9.70844 3.53177e-005 4.07398 0 -22.7824 -1.64846e-014 -18.1326 -11.5556 -2.11282 0 9.396 8.2423e-015 1.65221 53.4392 -0.238469 -4.12115e-015 12.0408 8.2423e-015 1.00692 -28.6121 1.08739 
30.6595 93.0281 11.5998 3.78851 -0.560764 31.4931 7.9576 -1.64846e-014 -4.12115e-015 -2.17306 -4.25942 -2.04825 0 -42.8504 4.12115e-015 4.98807 43.3755 3.74518 4.12115e-015 -41.644 4.12115e-015 -1.36882 -17.0743 -0.136131 -7.9576 -1.64846e-014 -4.12115e-015 0.961212 -8.51097 5.14434 -4.12115e-015 -42.8504 8.2423e-015 3.09543 29.7317 6.29874 2.06057e-015 -41.644 0 2.81764 -11.0781 9.62638 4.12115e-015 10.6024 -4.12115e-015 -3.95316 -6.11636 -3.96075 -4.12115e-015 15.2424 0 3.07195 -6.1149 -3.93157 2.4592 9.7208 4.0832 29.4815 -0.73884 -1.14937 13.4792 0 8.2423e-015 53.534 4.6275 2.41028 -3.29692e-014 -28.0256 -8.2423e-015 -1.22738 -7.7624 59.1733 0 -22.7824 0 17.9154 -13.712 2.43056 -2.4592 9.7208 4.0832 -32.1662 -0.33452 -0.206269 -14.0592 1.64846e-014 0 -61.9565 11.5062 -46.7606 -8.2423e-015 -25.7056 1.64846e-014 -9.54648 3.5322e-005 3.96545 0 -22.7824 0 -18.1572 -11.5871 -2.12148 4.12115e-015 9.396 8.2423e-015 2.65835 53.3544 -0.473862 1.23634e-014 12.0408 -8.2423e-015 0.325482 -29.1776 1.62465 
30.7913 93.0214 11.6391 3.75304 -0.564734 29.5074 7.9576 -1.64846e-014 8.2423e-015 -2.24784 -4.4186 -2.17996 -4.12115e-015 -42.8504 -4.12115e-015 5.4562 42.542 3.47501 4.12115e-015 -41.644 4.12115e-015 -1.46296 -17.8468 -0.159599 -7.9576 0 0 0.969264 -8.43478 5.08665 2.06057e-015 -42.8504 0 3.18115 29.6648 6.17555 -4.12115e-015 -41.644 -8.2423e-015 2.76009 -11.2093 9.43218 4.12115e-015 10.6024 0 -3.85802 -6.05966 -3.90865 -4.12115e-015 15.2424 8.2423e-015 2.80734 -5.85222 -3.86385 2.4592 9.7208 4.0832 29.5202 -0.699399 -1.01706 13.4792 3.29692e-014 0 52.8792 4.75137 2.74798 1.64846e-014 -28.0256 -8.2423e-015 -1.28789 -7.26728 58.5106 0 -22.7824 0 18.2014 -13.6988 2.46762 -2.4592 9.7208 4.0832 -31.9407 -0.317488 -0.237883 -14.0592 1.64846e-014 0 -61.466 11.0144 -46.4054 -8.2423e-015 -25.7056 0 -9.29511 3.53282e-005 3.81453 0 -22.7824 -1.64846e-014 -18.0278 -11.5823 -2.10547 -4.12115e-015 9.396 0 3.32462 53.3228 -0.459121 -4.12115e-015 12.0408 0 -0.226169 -29.8231 2.17623 
30.9199 93.0103 11.6679 3.71893 -0.5771 27.5073 7.9576 0 -4.12115e-015 -2.29384 -4.56535 -2.16391 -4.12115e-015 -42.8504 -4.12115e-015 6.0254 41.6477 2.9183 0 -41.644 5.15143e-015 -1.69295 -18.6183 -0.196715 -7.9576 1.64846e-014 0 0.97294 -8.3534 5.17016 2.06057e-015 -42.8504 0 3.33787 29.5795 5.94284 -2.06057e-015 -41.644 0 2.69251 -11.3511 9.22275 4.12115e-015 10.6024 0 -3.75428 -6.00503 -3.85012 0 15.2424 0 2.56163 -5.57473 -3.79214 2.4592 9.7208 4.0832 29.511 -0.655338 -0.876388 13.4792 1.64846e-014 0 52.2057 4.94739 3.27914 0 -28.0256 8.2423e-015 -1.36646 -6.81099 57.8549 -4.12115e-015 -22.7824 0 18.4267 -13.6902 2.49683 -2.4592 9.7208 4.0832 -31.7448 -0.321534 -0.210751 -14.0592 1.64846e-014 -8.2423e-015 -60.9256 10.605 -45.9742 0 -25.7056 1.64846e-014 -8.96864 3.53359e-005 3.61291 8.2423e-015 -22.7824 0 -17.765 -11.5317 -2.06656 0 9.396 0 3.7603 53.3148 -0.270555 -8.2423e-015 12.0408 0 -0.682877 -30.5132 2.74139 
